HIERARCHY
ROOT Hips
{
    OFFSET 0.0 0.0 0.0
    CHANNELS 6 Xposition Yposition Zposition Zrotation Xrotation Yrotation
    JOINT Spine
    {
        OFFSET 0.0 24.79033338125202 0.0
        CHANNELS 3 Zrotation Xrotation Yrotation
        JOINT Chest
        {
            OFFSET 0.0 24.79033338125202 0.0
            CHANNELS 3 Zrotation Xrotation Yrotation
            JOINT Head
            {
                OFFSET 0.0 13.85542425785541 0.0
                CHANNELS 3 Zrotation Xrotation Yrotation
            }
            JOINT LeftUpperArm
            {
                OFFSET 16.48828220134795 0.0 0.0
                CHANNELS 3 Zrotation Xrotation Yrotation
                JOINT LeftLowerArm
                {
                    OFFSET 25.16881391155124 0.0 0.0
                    CHANNELS 3 Zrotation Xrotation Yrotation
                    JOINT LeftHand
                    {
                        OFFSET 21.840048774868148 0.0 0.0
                        CHANNELS 3 Zrotation Xrotation Yrotation
                    }
                    End Site
                    {
                    OFFSET 7.9399707330596305 0.0 0.0
                    }
                }
            }
            JOINT RightUpperArm
            {
                OFFSET -16.48828220134795 0.0 0.0
                CHANNELS 3 Zrotation Xrotation Yrotation
                JOINT RightLowerArm
                {
                    OFFSET 25.16881391155124 0.0 0.0
                    CHANNELS 3 Zrotation Xrotation Yrotation
                    JOINT RightHand
                    {
                        OFFSET 21.840048774868148 0.0 0.0
                        CHANNELS 3 Zrotation Xrotation Yrotation
                    }
                    End Site
                    {
                    OFFSET 7.9399707330596305 0.0 0.0
                    }
                }
            }
        }
    }
    JOINT LeftUpperLeg
    {
        OFFSET 9.26531493572243 0.0 0.0
        CHANNELS 3 Zrotation Xrotation Yrotation
        JOINT LeftLowerLeg
        {
            OFFSET 38.285885886504545 0.0 0.0
            CHANNELS 3 Zrotation Xrotation Yrotation
            JOINT LeftFootAnkle
            {
                OFFSET 40.95230004852758 0.0 0.0
                CHANNELS 3 Zrotation Xrotation Yrotation
                End Site
                {
                OFFSET 10.837506415593896 0.0 0.0
                }
            }
        }
    }
    JOINT RightUpperLeg
    {
        OFFSET -9.26531493572243 0.0 0.0
        CHANNELS 3 Zrotation Xrotation Yrotation
        JOINT RightLowerLeg
        {
            OFFSET 38.285885886504545 0.0 0.0
            CHANNELS 3 Zrotation Xrotation Yrotation
            JOINT RightFootAnkle
            {
                OFFSET 40.95230004852758 0.0 0.0
                CHANNELS 3 Zrotation Xrotation Yrotation
                End Site
                {
                OFFSET 10.837506415593896 0.0 0.0
                }
            }
        }
    }
}
MOTION
Frames: 13
Frame Time: 0.03333333333333333
-0.1306970169475682 -0.16292821208515096 0.19244015064199269 -0.44203110984962957 0.06676400791360075 6.34042858731876 -6.2318517015938095 0.2807026806875146 -6.784388265031584 -6.154469765067631 1.0209869174109663 -6.775660933657195 11.39734121549357 33.82836623528986 25.411573550766715 123.6088506961794 -40.73609058783372 -166.45677830498533 34.294979470370805 -32.08514913108327 52.08761889063313 -139.3181554162923 45.18625121300653 163.9006883471147 90.16597609271807 6.623810556784897 -148.20892702599883 -135.19953397152324 19.1950403775405 108.31882500345621 11.338810604757724 -8.495021973934353 61.85408053835618 -107.94311554495266 -72.70025817405075 -21.293455014077182 -146.4483269311442 -31.461261004442626 180.0 -98.48164222845381 30.229469840823104 180.0 97.45099705471466 -72.3946878218333 -177.37343631898588 -153.09447487758214 -48.80737192276377 180.0 -84.60365545782065 -26.64923045882476 180.0
-0.13636666186082141 -0.16011595813636095 0.18080234797121522 -0.46219034702164974 1.37980227346134 8.149830325621567 -6.273661637884225 0.2695390976230218 -6.569978787886892 -6.201083783244774 0.9914227836052298 -6.560900783255936 11.859050902244316 32.995648422335094 27.172752037216135 124.8780067237085 -44.83606274038729 -162.8721380092997 18.544440912935897 -24.356619637884872 39.1248909716929 -127.49126905209175 58.51442052235231 148.1899723585577 86.84039726029573 6.739953616275145 -141.2479882451976 -127.67126577714114 17.899806500169706 103.34956511584569 23.333443478038006 9.155717690821389 69.52540319510965 -107.46212003969634 -69.39510102383197 -20.43955905707013 -147.6283342637967 -29.52525844419774 180.0 -97.24843347335222 30.36918706088514 180.0 100.07118295338047 -72.03708521109625 -174.64802381476358 -153.68914682029018 -50.366831978965706 180.0 -83.8974390580953 -26.17301395432287 180.0
-0.14145372235916528 -0.16030720950766197 0.16611716243178695 -0.5743312147274557 2.0680681508594008 10.5636803820265 -6.976099648324514 0.2891049297075587 -6.108554293512841 -6.905024337070397 1.0377682784988997 -6.099277456341857 14.086736236029303 32.95093739129657 28.911976212162497 122.2464720191978 -53.08541106345558 -165.6226931618712 8.926241062832341 -15.337937728562814 30.70152886459716 -95.06703812523934 67.47540299584645 113.0872401517485 83.55464532973558 3.4448067883418614 -135.61747770729042 -124.09464662993864 23.662557534931906 105.19921240151324 35.29969746063632 21.20065828842716 66.78883324935478 -102.31674942273948 -65.51523456641895 -15.183529462010892 -150.7005355047309 -26.501643968661632 180.0 -97.4936583695288 31.2110842991412 180.0 108.72596649660062 -74.60472438584698 -165.26233570009953 -152.41003633772965 -48.403668126587874 180.0 -84.44145327244607 -26.357720149367353 180.0
-0.14180864906169044 -0.1592382764668527 0.15760190053832807 -0.7194942764525307 2.6681214290291044 11.276752975381257 -7.29430849856186 0.2891463768901468 -5.874260088919623 -7.225680748992257 1.0428560144739734 -5.864239261862813 14.103096198106309 33.4665630958937 31.022600250671886 120.81699312187591 -53.14159326543863 -166.55811737810728 8.471434854173815 -15.710653731066932 28.812849090480555 -97.54228927201005 67.34895960146142 117.09034478927386 83.00956578818021 0.8279231609193807 -134.72464734696482 -126.02158287206967 17.28452370748578 102.1907770262779 42.817127563043975 22.715672499893273 71.22422377496243 -101.95229102277185 -64.44537253798994 -14.927481191514634 -151.26013497635896 -25.11244923866188 180.0 -96.95642319882141 31.23572186044217 180.0 111.8417100942594 -75.71220309638801 -161.76191286914906 -152.45166501616382 -48.54590398038979 180.0 -84.7556856211929 -27.37363487729542 180.0
-0.14653931028283834 -0.16102849016598994 0.15225981844306488 -0.7247094205285891 2.34545570930845 12.431881544243666 -7.856585498826825 0.31456271475315745 -5.834899422303441 -7.782959608286065 1.1227568313299359 -5.824059757944183 13.470420846014832 35.20833239775948 30.072196500339565 114.36311179934248 -50.752965766012366 -174.40988520555157 6.706926564270677 -12.893558003213922 27.789332970717457 -103.17033166035944 66.4927371979972 123.75445034196375 81.76117608207987 -0.07339755869424341 -136.8799430604994 -128.3013576599249 13.857995674808759 100.71194078568884 44.77801039523398 25.38743532573649 74.24213332473089 -101.82963522915645 -63.677309308849345 -14.692115473842822 -150.82317507941255 -25.45665048597736 180.0 -96.8455192139093 31.7208129069919 180.0 128.13722673691564 -80.41151786099886 -143.9592308639018 -150.1370576792191 -43.157045817917556 180.0 -83.4561786672676 -25.90200397580036 180.0
-0.14724286056913347 -0.1647683018705348 0.14922482459465325 -0.8588377908971887 2.1087949864363487 12.544803880277303 -8.398438766354364 0.3573198113443725 -5.809242353194313 -8.31780648630001 1.2206090694858747 -5.8002406602299 13.345081137491535 36.35598043969284 30.09761370052227 112.97108840224908 -45.623016762730146 -175.61404707527814 5.1027002880033 -10.51723995790827 26.068077673164918 -108.13760743587076 64.5898286379377 131.4799483698717 81.34848173503906 -0.26703894770802233 -138.109395445234 -127.6720796830953 11.489308715057351 98.74317247024504 44.85345860350029 27.629866929348655 75.66868005303954 -102.94144644640217 -65.6614173989602 -15.661063492548177 -149.3285198608864 -30.02535140085325 180.0 -97.12956938236518 31.44213852666834 180.0 130.38833969406397 -82.79515680402939 -141.05474267034938 -151.30140561946706 -41.84497579418878 180.0 -83.45840564696418 -25.092859032937238 180.0
-0.1478409288633347 -0.1677590380655955 0.14736388287762986 -1.0174779474663864 2.0342275287020755 12.599931300711814 -8.91140990026878 0.4141030714657557 -5.935370141244209 -8.818871772139596 1.353916077263796 -5.929275415253546 12.484341764079538 37.085969179337255 30.39054176997521 113.27939306161859 -46.760099998270036 -176.49413894823266 4.053844294028475 -8.80410390966172 24.845990726473705 -102.85096433660657 66.22455741897032 125.6389192058971 79.71612528171677 0.0015427551178684394 -137.445084447173 -128.24775735772607 10.736930213227609 98.35446565300494 46.96342794797834 31.915785331807548 75.9533141883873 -103.88302512560644 -66.73348680526394 -16.39751416498498 -148.33516210456528 -33.502367326859925 180.0 -98.20348359143148 31.18728053850119 180.0 145.15509802905657 -85.27917993329191 -125.73640450165958 -150.98245080264778 -39.9933736594192 180.0 -83.34917160297532 -25.795639188555832 180.0
-0.15016262715071474 -0.16974733758268315 0.1453895380389426 -1.0361113036169234 1.8084223891268545 12.773379400667269 -9.20919798866712 0.4238230122347048 -5.755708199919947 -9.118148155628813 1.3680321932643145 -5.7507425187781935 11.478470117216396 37.427516622461866 30.987397284533053 114.86557223618776 -44.45113319032718 -174.84325041649407 2.977849345454686 -6.357439140422087 25.163645771123292 -101.83334334329975 67.30116893835954 124.56043640445122 79.88445029472392 -0.8742809440294163 -136.9184635556 -127.38593460034768 10.136121772439623 97.65941352391367 47.733091183128266 33.38533248976033 74.31776730801379 -104.10567149745675 -67.36675363911307 -16.37206485594349 -148.12975012839422 -34.17151658725716 180.0 -98.40712300738731 31.2338216563291 180.0 179.78580487657896 -86.30599055269363 -90.45114594991911 -150.56411912572963 -37.367444930499246 180.0 -82.51649737407377 -26.75979901101282 180.0
-0.15241845897255474 -0.17188643253030997 0.1433417684577093 -1.0224428956181175 1.5580192142352003 12.921060496340193 -9.441273450396816 0.38164336285824707 -5.3390148190190825 -9.363066624983055 1.2793574301337356 -5.3304195392294105 11.264980710035255 37.806509939477024 31.697207304663486 115.40594457483631 -41.15377472467254 -173.70463594441082 0.5890892479341351 -1.2523379704321456 25.19443363350248 -97.26462575187804 67.7222060032848 120.1532879124446 79.41507468647298 -0.8841512968800196 -138.2485938481339 -125.60525947737757 8.17741333063881 95.81567391127238 46.86866853672464 35.79800744685164 73.79405726599816 -103.72243955331113 -67.36130522646631 -15.890995944710507 -147.97632702325217 -33.72198253018527 180.0 -98.10293873959583 31.199533491815483 180.0 -162.44944158685908 -86.12357350353518 -72.54373906171459 -149.98525236765028 -36.236175600613144 180.0 -82.10355318029802 -27.330773239661344 180.0
-0.15384128553151694 -0.17227749242650336 0.14271035407118804 -1.0282755909391827 1.4967262377133481 13.094725859039507 -9.497663424600809 0.3835906403533115 -5.337655861805553 -9.419032450205696 1.2866748129922179 -5.328919067826855 11.126239127739202 37.91977112227896 31.020318150351883 115.34417844815093 -39.105366524426195 -173.94416805951278 -0.2357378585009671 0.4957935484204489 25.430361785257855 -95.59701299332814 67.35482498025351 119.49504484106791 78.88253195572592 -0.045781983890729995 -138.19041418292454 -125.18226240355065 7.6540255640029216 95.36401257159358 46.186613936113446 36.57962421901778 74.68558063215913 -104.20237100426537 -67.73795158072829 -16.333357601924803 -147.21033877873109 -34.60617502761174 180.0 -98.39794060705933 31.183041492602104 180.0 -155.7952950984923 -86.39898953618896 -65.87237250140925 -149.98112794814915 -36.79743472533337 180.0 -81.86113795443922 -27.860297994849873 180.0
-0.15579628131874365 -0.173148747650985 0.141955490173093 -0.9587796438927845 1.134894083591688 13.348951992856996 -9.507352137908018 0.33422514100980905 -4.769565938325709 -9.445312102588572 1.141836700529548 -4.760053929350409 11.209868635154558 37.97780563272945 30.731941898534675 115.04111456688975 -37.132796651161314 -174.3995843872087 -1.2748826791252552 2.5909029285508742 26.211490868275842 -94.35796714800608 66.76189024767116 119.86128019108732 79.24044894924882 -0.18174807171901947 -139.61473353285587 -124.78024598863543 7.546623410702552 95.21162002194814 44.68379257600059 35.433528387970156 75.35142221453611 -103.48205162975677 -67.6531714076171 -15.531119836211767 -146.97924480248142 -34.54315094103685 180.0 -98.79884528375337 31.395332360751993 180.0 -141.5461042287931 -86.27205040696178 -51.458557933605796 -149.80567862902564 -36.48004409890354 180.0 -82.04494473399843 -28.09417465895065 180.0
-0.15667748146278854 -0.17353427027380805 0.14050793890196936 -0.8539621791336641 0.7590753745364045 13.333942233634286 -9.517018385663865 0.3539924794307694 -4.825324173346274 -9.451999173763385 1.1732163786755656 -4.818294990967333 10.678485738556411 37.74224192574087 31.69046519157951 116.4037056988474 -34.606596503922106 -172.60780340556803 -1.1643261430816394 2.3108921392422404 26.750329990609828 -100.91767247584929 64.32500744251858 124.513200377906 79.30866185568661 1.0658865349854312 -139.7801375684123 -125.35664455524415 8.65333264776934 96.09336259799373 37.545291856692515 33.474326208781896 74.61702500294429 -103.44462396779156 -68.0343024192024 -15.343991207432156 -146.54597679729423 -33.885672492734855 180.0 -98.80635874874329 31.26348112648688 180.0 -140.87408294131905 -86.9119318153463 -50.7753827311909 -149.8175932485855 -36.8230030865779 180.0 -82.09667586686535 -28.135703727821554 180.0
-0.1583117864886043 -0.1728544720648276 0.13799264326351413 -0.5711168259906113 0.04437024227814193 13.451141374377377 -9.477274247017734 0.33819557075378626 -4.350373189108945 -9.422920722220834 1.0757649932300557 -4.3473339947414 9.995204540872388 37.58644765691153 33.512044711499186 118.9196914447241 -37.77199113860799 -170.24988403997702 -0.0048530264644831775 0.010217699444092617 25.405976141647823 -96.35325686219755 63.03168297888357 118.48273090483026 79.39239208148932 1.541119046358725 -140.28671316892584 -127.99802374505249 9.665090911005752 97.47224774976726 34.970494145564324 29.26141430995269 74.42278202717202 -101.95985448946044 -67.66169850722413 -13.474961661961773 -146.7781094133016 -32.26198102706372 180.0 -98.87022322964225 31.229387355927795 180.0 -136.36301628245246 -87.42686938808356 -46.177159514340666 -149.96200621567488 -36.36231813614121 180.0 -82.59999211640847 -27.909475060238055 180.0
